<?xml version="1.0" encoding="utf-8"?>
<!-- Generator: Adobe Illustrator 22.1.0, SVG Export Plug-In . SVG Version: 6.00 Build 0)  -->
<svg version="1.0" xmlns="http://www.w3.org/2000/svg" xmlns:xlink="http://www.w3.org/1999/xlink" x="0px" y="0px"
	 viewBox="0 0 1376.2 1639.4" style="enable-background:new 0 0 1376.2 1639.4;" xml:space="preserve">
<style type="text/css">
	.st0{fill:#FFF5E2;}
</style>
<g id="レイヤー_2">
</g>
<g id="レイヤー_1">
	<path class="st0" d="M1373.6,472.7c0-0.2,0-0.4,0-0.6c0-0.4,0-0.8,0-1.2c0-0.3,0-0.5-0.1-0.8c0-0.4-0.1-0.8-0.1-1.1
		c0-0.3-0.1-0.6-0.1-0.8c-0.1-0.4-0.1-0.7-0.2-1.1c-0.1-0.3-0.1-0.6-0.2-0.8c-0.1-0.4-0.2-0.7-0.3-1.1c-0.1-0.3-0.1-0.5-0.2-0.8
		c-0.1-0.4-0.2-0.7-0.3-1c-0.1-0.3-0.2-0.5-0.3-0.8c-0.1-0.4-0.3-0.7-0.4-1c-0.1-0.2-0.2-0.5-0.3-0.7c-0.2-0.4-0.3-0.7-0.5-1.1
		c-0.1-0.2-0.2-0.4-0.3-0.7c-0.2-0.4-0.4-0.8-0.6-1.2c-0.1-0.2-0.2-0.3-0.3-0.5c-0.7-1.1-1.4-2.1-2.2-3.2c-0.1-0.2-0.3-0.3-0.4-0.5
		c-0.3-0.3-0.6-0.7-0.9-1c-0.2-0.2-0.3-0.4-0.5-0.5c-0.3-0.3-0.5-0.6-0.8-0.8c-0.2-0.2-0.4-0.4-0.6-0.6c-0.3-0.2-0.5-0.5-0.8-0.7
		c-0.2-0.2-0.4-0.4-0.7-0.5c-0.3-0.2-0.6-0.5-0.9-0.7c-0.2-0.2-0.5-0.3-0.7-0.5c-0.2-0.1-0.3-0.2-0.5-0.3L706,5.2
		c-10.1-6.8-23.3-6.9-33.5-0.1L13.3,445.3c-0.2,0.1-0.4,0.3-0.6,0.4c-0.2,0.2-0.5,0.3-0.7,0.5c-0.3,0.2-0.6,0.5-0.9,0.7
		c-0.2,0.2-0.4,0.3-0.6,0.5c-0.3,0.3-0.6,0.5-0.9,0.8c-0.2,0.2-0.4,0.3-0.5,0.5c-0.4,0.4-0.7,0.7-1.1,1.1c-0.1,0.1-0.2,0.2-0.3,0.3
		c-0.4,0.5-0.8,1-1.2,1.5c-0.1,0.1-0.2,0.3-0.3,0.5c-0.3,0.4-0.5,0.7-0.8,1.1c-0.1,0.2-0.3,0.4-0.4,0.6c-0.2,0.3-0.4,0.7-0.6,1
		c-0.1,0.2-0.3,0.5-0.4,0.7c-0.2,0.3-0.4,0.6-0.5,1c-0.1,0.2-0.2,0.5-0.4,0.8c-0.2,0.3-0.3,0.6-0.5,1c-0.1,0.3-0.2,0.5-0.3,0.8
		c-0.1,0.3-0.3,0.7-0.4,1c-0.1,0.3-0.2,0.6-0.3,0.8c-0.1,0.3-0.2,0.7-0.3,1c-0.1,0.3-0.2,0.6-0.2,0.8c-0.1,0.3-0.2,0.7-0.2,1
		c-0.1,0.3-0.1,0.6-0.2,0.9c-0.1,0.4-0.1,0.7-0.2,1.1c0,0.3-0.1,0.6-0.1,0.8c0,0.4-0.1,0.8-0.1,1.2c0,0.3-0.1,0.5-0.1,0.8
		c0,0.4,0,0.9,0,1.3c0,0.2,0,0.4,0,0.6l1.7,728.9c0,10.3,5.4,19.9,14.2,25.4l660.2,410.2c4.8,3,10.3,4.5,15.8,4.5
		c5.5,0,10.9-1.5,15.8-4.5l140.5-86.9l112.6-68.2c3.6-2.2,7-4.7,10-7.6l391.2-241.9c8.9-5.5,14.3-15.2,14.2-25.6L1373.6,472.7z
		 M689.1,66.1l600.3,406.1L689.2,862.5L84.5,469.9L689.1,66.1z M816.9,1496.9l-125,75.7l-248.8-153.8l0.2-184.4
		c2.6-2.4,5.8-4,9.2-4.8l236.8,148.2L919,1235.5c4.4,1.2,8.3,3.9,10.9,7.6l-0.1,126.7l-1.4,44.6c-0.1,2.9,0.4,5.6,1.4,8l0,4.7
		L816.9,1496.9z M1129.2,1303.8l0.6-422.1c0-15.6-17.3-25-30.3-16.5l-399.7,259.9c-6.5,4.2-14.8,4.2-21.3,0.1L265.9,861.8
		c-13.1-8.3-30.2,1-30.2,16.5l-0.5,411.9L61.7,1182.5l-1.6-656.9l612.7,397.9c5,3.2,10.7,4.8,16.3,4.8c5.7,0,11.4-1.6,16.4-4.8
		l608.3-395.5l2.3,660.3L1129.2,1303.8z"/>
</g>
</svg>
