<?xml version="1.0" encoding="utf-8"?>
<!-- Generator: Adobe Illustrator 22.1.0, SVG Export Plug-In . SVG Version: 6.00 Build 0)  -->
<svg version="1.0" id="レイヤー_1" xmlns="http://www.w3.org/2000/svg" xmlns:xlink="http://www.w3.org/1999/xlink" x="0px"
	 y="0px" viewBox="0 0 1376.2 1639.4" style="enable-background:new 0 0 1376.2 1639.4;" xml:space="preserve">
<style type="text/css">
	.st0{fill:#FFF5E2;}
</style>
<path class="st0" d="M1373.6,472.7c0-0.2,0-0.4,0-0.6c0-0.4,0-0.8,0-1.2c0-0.3,0-0.5-0.1-0.8c0-0.4-0.1-0.8-0.1-1.1
	c0-0.3-0.1-0.6-0.1-0.8c-0.1-0.4-0.1-0.7-0.2-1.1c-0.1-0.3-0.1-0.6-0.2-0.8c-0.1-0.4-0.2-0.7-0.3-1.1c-0.1-0.3-0.1-0.5-0.2-0.8
	c-0.1-0.4-0.2-0.7-0.3-1c-0.1-0.3-0.2-0.5-0.3-0.8c-0.1-0.4-0.3-0.7-0.4-1c-0.1-0.2-0.2-0.5-0.3-0.7c-0.2-0.4-0.3-0.7-0.5-1.1
	c-0.1-0.2-0.2-0.4-0.3-0.7c-0.2-0.4-0.4-0.8-0.6-1.2c-0.1-0.2-0.2-0.3-0.3-0.5c-0.7-1.1-1.4-2.1-2.2-3.2c-0.1-0.2-0.3-0.3-0.4-0.5
	c-0.3-0.3-0.6-0.7-0.9-1c-0.2-0.2-0.3-0.4-0.5-0.5c-0.3-0.3-0.5-0.6-0.8-0.8c-0.2-0.2-0.4-0.4-0.6-0.6c-0.3-0.2-0.5-0.5-0.8-0.7
	c-0.2-0.2-0.4-0.4-0.7-0.5c-0.3-0.2-0.6-0.5-0.9-0.7c-0.2-0.2-0.5-0.3-0.7-0.5c-0.2-0.1-0.3-0.2-0.5-0.3L706,5.2
	c-10.1-6.8-23.3-6.9-33.5-0.1L13.3,445.3c-0.2,0.1-0.4,0.3-0.6,0.4c-0.2,0.2-0.5,0.3-0.7,0.5c-0.3,0.2-0.6,0.5-0.9,0.7
	c-0.2,0.2-0.4,0.3-0.6,0.5c-0.3,0.3-0.6,0.5-0.9,0.8c-0.2,0.2-0.4,0.3-0.5,0.5c-0.4,0.4-0.7,0.7-1.1,1.1c-0.1,0.1-0.2,0.2-0.3,0.3
	c-0.4,0.5-0.8,1-1.2,1.5c-0.1,0.1-0.2,0.3-0.3,0.5c-0.3,0.4-0.5,0.7-0.8,1.1c-0.1,0.2-0.3,0.4-0.4,0.6c-0.2,0.3-0.4,0.7-0.6,1
	c-0.1,0.2-0.3,0.5-0.4,0.7c-0.2,0.3-0.4,0.6-0.5,1c-0.1,0.2-0.2,0.5-0.4,0.8c-0.2,0.3-0.3,0.6-0.5,1c-0.1,0.3-0.2,0.5-0.3,0.8
	c-0.1,0.3-0.3,0.7-0.4,1c-0.1,0.3-0.2,0.6-0.3,0.8c-0.1,0.3-0.2,0.7-0.3,1c-0.1,0.3-0.2,0.6-0.2,0.8c-0.1,0.3-0.2,0.7-0.2,1
	c-0.1,0.3-0.1,0.6-0.2,0.9c-0.1,0.4-0.1,0.7-0.2,1.1c0,0.3-0.1,0.6-0.1,0.8c0,0.4-0.1,0.8-0.1,1.2c0,0.3-0.1,0.5-0.1,0.8
	c0,0.4,0,0.9,0,1.3c0,0.2,0,0.4,0,0.6l1.7,728.9c0,10.3,5.4,19.9,14.2,25.4l660.2,410.2c4.8,3,10.3,4.5,15.8,4.5
	c5.5,0,10.9-1.5,15.8-4.5l140.5-86.9l112.5-68.2c3.6-2.2,7-4.7,10-7.6l391.2-241.9c8.9-5.5,14.3-15.2,14.2-25.6L1373.6,472.7z
	 M691.9,1572.6l-248.8-153.8l0.3-194.9l246,154l240.6-149.1l-0.2,141.1l-1.9,58.4l-111,68.6L691.9,1572.6z M1129.2,1303.8l0.7-458.3
	L689.2,1132L235.7,842.6l-0.5,447.7L61.7,1182.5l-1.6-656.9l612.7,397.9c5,3.2,10.7,4.8,16.3,4.8c5.7,0,11.4-1.6,16.4-4.8
	l608.3-395.5l2.3,660.3L1129.2,1303.8z"/>
</svg>
